<mxfile host="app.diagrams.net" modified="2024-03-20T10:56:40.913Z" agent="Mozilla/5.0 (Windows NT 10.0; Win64; x64) AppleWebKit/537.36 (KHTML, like Gecko) Chrome/122.0.0.0 Safari/537.36 Edg/122.0.0.0" etag="hrNZW6IbH4o6ot0ejwIQ" version="23.1.3" type="device">
  <diagram name="Página-1" id="l6KniY5WcpvNC_tys5gj">
    <mxGraphModel dx="1426" dy="769" grid="1" gridSize="10" guides="1" tooltips="1" connect="1" arrows="1" fold="1" page="1" pageScale="1" pageWidth="827" pageHeight="1169" math="0" shadow="0">
      <root>
        <mxCell id="0" />
        <mxCell id="1" parent="0" />
        <mxCell id="oiwFF2_05HxIkELk8Hxl-4" style="edgeStyle=orthogonalEdgeStyle;rounded=0;orthogonalLoop=1;jettySize=auto;html=1;exitX=0.5;exitY=1;exitDx=0;exitDy=0;fontSize=20;" edge="1" parent="1" source="oiwFF2_05HxIkELk8Hxl-1" target="oiwFF2_05HxIkELk8Hxl-3">
          <mxGeometry relative="1" as="geometry" />
        </mxCell>
        <mxCell id="oiwFF2_05HxIkELk8Hxl-1" value="" style="rounded=1;whiteSpace=wrap;html=1;fontSize=20;" vertex="1" parent="1">
          <mxGeometry x="340" y="140" width="120" height="60" as="geometry" />
        </mxCell>
        <mxCell id="oiwFF2_05HxIkELk8Hxl-2" value="Obtener Imagen" style="text;html=1;align=center;verticalAlign=middle;whiteSpace=wrap;rounded=0;fontSize=20;" vertex="1" parent="1">
          <mxGeometry x="370" y="155" width="60" height="30" as="geometry" />
        </mxCell>
        <mxCell id="oiwFF2_05HxIkELk8Hxl-10" style="edgeStyle=orthogonalEdgeStyle;rounded=0;orthogonalLoop=1;jettySize=auto;html=1;exitX=0.25;exitY=1;exitDx=0;exitDy=0;fontSize=20;" edge="1" parent="1" source="oiwFF2_05HxIkELk8Hxl-3" target="oiwFF2_05HxIkELk8Hxl-6">
          <mxGeometry relative="1" as="geometry" />
        </mxCell>
        <mxCell id="oiwFF2_05HxIkELk8Hxl-11" style="edgeStyle=orthogonalEdgeStyle;rounded=0;orthogonalLoop=1;jettySize=auto;html=1;exitX=0.75;exitY=1;exitDx=0;exitDy=0;entryX=0.5;entryY=0;entryDx=0;entryDy=0;fontSize=20;" edge="1" parent="1" source="oiwFF2_05HxIkELk8Hxl-3" target="oiwFF2_05HxIkELk8Hxl-8">
          <mxGeometry relative="1" as="geometry" />
        </mxCell>
        <mxCell id="oiwFF2_05HxIkELk8Hxl-3" value="" style="rounded=1;whiteSpace=wrap;html=1;fontSize=20;" vertex="1" parent="1">
          <mxGeometry x="340" y="260" width="120" height="80" as="geometry" />
        </mxCell>
        <mxCell id="oiwFF2_05HxIkELk8Hxl-5" value="Cáculo de distancia al punto" style="text;html=1;align=center;verticalAlign=middle;whiteSpace=wrap;rounded=0;fontSize=20;" vertex="1" parent="1">
          <mxGeometry x="345" y="285" width="110" height="30" as="geometry" />
        </mxCell>
        <mxCell id="oiwFF2_05HxIkELk8Hxl-6" value="" style="rounded=1;whiteSpace=wrap;html=1;fontSize=20;" vertex="1" parent="1">
          <mxGeometry x="190" y="410" width="120" height="60" as="geometry" />
        </mxCell>
        <mxCell id="oiwFF2_05HxIkELk8Hxl-7" value="Acabar" style="text;html=1;align=center;verticalAlign=middle;whiteSpace=wrap;rounded=0;fontSize=20;" vertex="1" parent="1">
          <mxGeometry x="220" y="425" width="60" height="30" as="geometry" />
        </mxCell>
        <mxCell id="oiwFF2_05HxIkELk8Hxl-16" style="edgeStyle=orthogonalEdgeStyle;rounded=0;orthogonalLoop=1;jettySize=auto;html=1;exitX=0.5;exitY=1;exitDx=0;exitDy=0;entryX=0.5;entryY=0;entryDx=0;entryDy=0;fontSize=20;" edge="1" parent="1" source="oiwFF2_05HxIkELk8Hxl-8" target="oiwFF2_05HxIkELk8Hxl-14">
          <mxGeometry relative="1" as="geometry" />
        </mxCell>
        <mxCell id="oiwFF2_05HxIkELk8Hxl-8" value="" style="rounded=1;whiteSpace=wrap;html=1;fontSize=20;" vertex="1" parent="1">
          <mxGeometry x="490" y="400" width="120" height="80" as="geometry" />
        </mxCell>
        <mxCell id="oiwFF2_05HxIkELk8Hxl-9" value="Cáculo de ángulo al punto" style="text;html=1;align=center;verticalAlign=middle;whiteSpace=wrap;rounded=0;fontSize=20;" vertex="1" parent="1">
          <mxGeometry x="505" y="425" width="90" height="30" as="geometry" />
        </mxCell>
        <mxCell id="oiwFF2_05HxIkELk8Hxl-12" value="Distancia &amp;lt; Umbral" style="text;html=1;align=center;verticalAlign=middle;whiteSpace=wrap;rounded=0;fontSize=20;" vertex="1" parent="1">
          <mxGeometry x="150" y="340" width="200" height="30" as="geometry" />
        </mxCell>
        <mxCell id="oiwFF2_05HxIkELk8Hxl-13" value="Distancia &amp;gt;= Umbral" style="text;html=1;align=center;verticalAlign=middle;whiteSpace=wrap;rounded=0;fontSize=20;" vertex="1" parent="1">
          <mxGeometry x="455" y="340" width="210" height="30" as="geometry" />
        </mxCell>
        <mxCell id="oiwFF2_05HxIkELk8Hxl-19" style="edgeStyle=orthogonalEdgeStyle;rounded=0;orthogonalLoop=1;jettySize=auto;html=1;exitX=0.5;exitY=1;exitDx=0;exitDy=0;" edge="1" parent="1" source="oiwFF2_05HxIkELk8Hxl-14" target="oiwFF2_05HxIkELk8Hxl-17">
          <mxGeometry relative="1" as="geometry" />
        </mxCell>
        <mxCell id="oiwFF2_05HxIkELk8Hxl-14" value="" style="rounded=1;whiteSpace=wrap;html=1;fontSize=20;" vertex="1" parent="1">
          <mxGeometry x="470" y="540" width="160" height="110" as="geometry" />
        </mxCell>
        <mxCell id="oiwFF2_05HxIkELk8Hxl-15" value="Cáculo de error entre orientación del robot y ángulo al punto" style="text;html=1;align=center;verticalAlign=middle;whiteSpace=wrap;rounded=0;fontSize=20;" vertex="1" parent="1">
          <mxGeometry x="470" y="580" width="155" height="30" as="geometry" />
        </mxCell>
        <mxCell id="oiwFF2_05HxIkELk8Hxl-26" style="edgeStyle=orthogonalEdgeStyle;rounded=0;orthogonalLoop=1;jettySize=auto;html=1;exitX=0.25;exitY=1;exitDx=0;exitDy=0;" edge="1" parent="1" source="oiwFF2_05HxIkELk8Hxl-17" target="oiwFF2_05HxIkELk8Hxl-20">
          <mxGeometry relative="1" as="geometry" />
        </mxCell>
        <mxCell id="oiwFF2_05HxIkELk8Hxl-27" style="edgeStyle=orthogonalEdgeStyle;rounded=0;orthogonalLoop=1;jettySize=auto;html=1;exitX=0.5;exitY=1;exitDx=0;exitDy=0;entryX=0.5;entryY=0;entryDx=0;entryDy=0;" edge="1" parent="1" source="oiwFF2_05HxIkELk8Hxl-17" target="oiwFF2_05HxIkELk8Hxl-22">
          <mxGeometry relative="1" as="geometry" />
        </mxCell>
        <mxCell id="oiwFF2_05HxIkELk8Hxl-28" style="edgeStyle=orthogonalEdgeStyle;rounded=0;orthogonalLoop=1;jettySize=auto;html=1;exitX=0.75;exitY=1;exitDx=0;exitDy=0;entryX=0.5;entryY=0;entryDx=0;entryDy=0;" edge="1" parent="1" source="oiwFF2_05HxIkELk8Hxl-17" target="oiwFF2_05HxIkELk8Hxl-24">
          <mxGeometry relative="1" as="geometry" />
        </mxCell>
        <mxCell id="oiwFF2_05HxIkELk8Hxl-17" value="" style="rounded=1;whiteSpace=wrap;html=1;fontSize=20;" vertex="1" parent="1">
          <mxGeometry x="480" y="720" width="140" height="90" as="geometry" />
        </mxCell>
        <mxCell id="oiwFF2_05HxIkELk8Hxl-18" value="Cálculo de tiempo de movimiento" style="text;html=1;align=center;verticalAlign=middle;whiteSpace=wrap;rounded=0;fontSize=20;" vertex="1" parent="1">
          <mxGeometry x="472.5" y="750" width="155" height="30" as="geometry" />
        </mxCell>
        <mxCell id="oiwFF2_05HxIkELk8Hxl-55" style="edgeStyle=orthogonalEdgeStyle;rounded=0;orthogonalLoop=1;jettySize=auto;html=1;exitX=0.5;exitY=1;exitDx=0;exitDy=0;entryX=0.5;entryY=0;entryDx=0;entryDy=0;" edge="1" parent="1" source="oiwFF2_05HxIkELk8Hxl-20" target="oiwFF2_05HxIkELk8Hxl-1">
          <mxGeometry relative="1" as="geometry">
            <Array as="points">
              <mxPoint x="279" y="1000" />
              <mxPoint x="80" y="1000" />
              <mxPoint x="80" y="120" />
              <mxPoint x="400" y="120" />
            </Array>
          </mxGeometry>
        </mxCell>
        <mxCell id="oiwFF2_05HxIkELk8Hxl-20" value="" style="rounded=1;whiteSpace=wrap;html=1;fontSize=20;" vertex="1" parent="1">
          <mxGeometry x="209" y="890" width="140" height="90" as="geometry" />
        </mxCell>
        <mxCell id="oiwFF2_05HxIkELk8Hxl-21" value="Avanzar&lt;br&gt;recto" style="text;html=1;align=center;verticalAlign=middle;whiteSpace=wrap;rounded=0;fontSize=20;" vertex="1" parent="1">
          <mxGeometry x="199" y="920" width="155" height="30" as="geometry" />
        </mxCell>
        <mxCell id="oiwFF2_05HxIkELk8Hxl-22" value="" style="rounded=1;whiteSpace=wrap;html=1;fontSize=20;" vertex="1" parent="1">
          <mxGeometry x="480" y="890" width="140" height="90" as="geometry" />
        </mxCell>
        <mxCell id="oiwFF2_05HxIkELk8Hxl-23" value="Retroceder" style="text;html=1;align=center;verticalAlign=middle;whiteSpace=wrap;rounded=0;fontSize=20;" vertex="1" parent="1">
          <mxGeometry x="470" y="920" width="155" height="30" as="geometry" />
        </mxCell>
        <mxCell id="oiwFF2_05HxIkELk8Hxl-39" style="edgeStyle=orthogonalEdgeStyle;rounded=0;orthogonalLoop=1;jettySize=auto;html=1;exitX=0.25;exitY=1;exitDx=0;exitDy=0;" edge="1" parent="1" source="oiwFF2_05HxIkELk8Hxl-24" target="oiwFF2_05HxIkELk8Hxl-35">
          <mxGeometry relative="1" as="geometry" />
        </mxCell>
        <mxCell id="oiwFF2_05HxIkELk8Hxl-40" style="edgeStyle=orthogonalEdgeStyle;rounded=0;orthogonalLoop=1;jettySize=auto;html=1;exitX=0.75;exitY=1;exitDx=0;exitDy=0;entryX=0.5;entryY=0;entryDx=0;entryDy=0;" edge="1" parent="1" source="oiwFF2_05HxIkELk8Hxl-24" target="oiwFF2_05HxIkELk8Hxl-37">
          <mxGeometry relative="1" as="geometry" />
        </mxCell>
        <mxCell id="oiwFF2_05HxIkELk8Hxl-24" value="" style="rounded=1;whiteSpace=wrap;html=1;fontSize=20;" vertex="1" parent="1">
          <mxGeometry x="682" y="890" width="140" height="90" as="geometry" />
        </mxCell>
        <mxCell id="oiwFF2_05HxIkELk8Hxl-25" value="Girar" style="text;html=1;align=center;verticalAlign=middle;whiteSpace=wrap;rounded=0;fontSize=20;" vertex="1" parent="1">
          <mxGeometry x="672" y="920" width="155" height="30" as="geometry" />
        </mxCell>
        <mxCell id="oiwFF2_05HxIkELk8Hxl-29" value="&lt;font style=&quot;font-size: 20px;&quot;&gt;-30º &amp;lt; error &amp;lt; 30º&lt;/font&gt;" style="text;html=1;align=center;verticalAlign=middle;whiteSpace=wrap;rounded=0;" vertex="1" parent="1">
          <mxGeometry x="244" y="820" width="170" height="30" as="geometry" />
        </mxCell>
        <mxCell id="oiwFF2_05HxIkELk8Hxl-31" value="&lt;font style=&quot;font-size: 20px;&quot;&gt;-155º &amp;gt;&amp;nbsp;error &amp;gt; 155º&lt;/font&gt;" style="text;html=1;align=center;verticalAlign=middle;whiteSpace=wrap;rounded=0;" vertex="1" parent="1">
          <mxGeometry x="360" y="860" width="190" height="30" as="geometry" />
        </mxCell>
        <mxCell id="oiwFF2_05HxIkELk8Hxl-33" value="&lt;font style=&quot;font-size: 20px;&quot;&gt;Else&lt;/font&gt;" style="text;html=1;align=center;verticalAlign=middle;whiteSpace=wrap;rounded=0;" vertex="1" parent="1">
          <mxGeometry x="570" y="820" width="190" height="30" as="geometry" />
        </mxCell>
        <mxCell id="oiwFF2_05HxIkELk8Hxl-45" style="edgeStyle=orthogonalEdgeStyle;rounded=0;orthogonalLoop=1;jettySize=auto;html=1;exitX=0.5;exitY=1;exitDx=0;exitDy=0;entryX=0.5;entryY=0;entryDx=0;entryDy=0;" edge="1" parent="1" source="oiwFF2_05HxIkELk8Hxl-35" target="oiwFF2_05HxIkELk8Hxl-43">
          <mxGeometry relative="1" as="geometry" />
        </mxCell>
        <mxCell id="oiwFF2_05HxIkELk8Hxl-35" value="" style="rounded=1;whiteSpace=wrap;html=1;fontSize=20;" vertex="1" parent="1">
          <mxGeometry x="577" y="1060" width="140" height="90" as="geometry" />
        </mxCell>
        <mxCell id="oiwFF2_05HxIkELk8Hxl-36" value="Girar sobre&lt;br&gt;sí mismo" style="text;html=1;align=center;verticalAlign=middle;whiteSpace=wrap;rounded=0;fontSize=20;" vertex="1" parent="1">
          <mxGeometry x="567" y="1090" width="155" height="30" as="geometry" />
        </mxCell>
        <mxCell id="oiwFF2_05HxIkELk8Hxl-46" style="edgeStyle=orthogonalEdgeStyle;rounded=0;orthogonalLoop=1;jettySize=auto;html=1;exitX=0.5;exitY=1;exitDx=0;exitDy=0;entryX=0.5;entryY=0;entryDx=0;entryDy=0;" edge="1" parent="1" source="oiwFF2_05HxIkELk8Hxl-37" target="oiwFF2_05HxIkELk8Hxl-43">
          <mxGeometry relative="1" as="geometry" />
        </mxCell>
        <mxCell id="oiwFF2_05HxIkELk8Hxl-37" value="" style="rounded=1;whiteSpace=wrap;html=1;fontSize=20;" vertex="1" parent="1">
          <mxGeometry x="787" y="1060" width="140" height="90" as="geometry" />
        </mxCell>
        <mxCell id="oiwFF2_05HxIkELk8Hxl-38" value="Girar&lt;br&gt;avanzando" style="text;html=1;align=center;verticalAlign=middle;whiteSpace=wrap;rounded=0;fontSize=20;" vertex="1" parent="1">
          <mxGeometry x="777" y="1090" width="155" height="30" as="geometry" />
        </mxCell>
        <mxCell id="oiwFF2_05HxIkELk8Hxl-41" value="&lt;font style=&quot;font-size: 20px;&quot;&gt;Distancia &amp;lt; 80px&lt;/font&gt;" style="text;html=1;align=center;verticalAlign=middle;whiteSpace=wrap;rounded=0;" vertex="1" parent="1">
          <mxGeometry x="532" y="990" width="190" height="30" as="geometry" />
        </mxCell>
        <mxCell id="oiwFF2_05HxIkELk8Hxl-42" value="&lt;font style=&quot;font-size: 20px;&quot;&gt;Distancia &amp;gt;=&amp;nbsp;80px&lt;/font&gt;" style="text;html=1;align=center;verticalAlign=middle;whiteSpace=wrap;rounded=0;" vertex="1" parent="1">
          <mxGeometry x="787" y="990" width="190" height="30" as="geometry" />
        </mxCell>
        <mxCell id="oiwFF2_05HxIkELk8Hxl-51" style="edgeStyle=orthogonalEdgeStyle;rounded=0;orthogonalLoop=1;jettySize=auto;html=1;exitX=0.25;exitY=1;exitDx=0;exitDy=0;entryX=0.5;entryY=0;entryDx=0;entryDy=0;" edge="1" parent="1" source="oiwFF2_05HxIkELk8Hxl-43" target="oiwFF2_05HxIkELk8Hxl-47">
          <mxGeometry relative="1" as="geometry" />
        </mxCell>
        <mxCell id="oiwFF2_05HxIkELk8Hxl-52" style="edgeStyle=orthogonalEdgeStyle;rounded=0;orthogonalLoop=1;jettySize=auto;html=1;exitX=0.75;exitY=1;exitDx=0;exitDy=0;entryX=0.5;entryY=0;entryDx=0;entryDy=0;" edge="1" parent="1" source="oiwFF2_05HxIkELk8Hxl-43" target="oiwFF2_05HxIkELk8Hxl-49">
          <mxGeometry relative="1" as="geometry" />
        </mxCell>
        <mxCell id="oiwFF2_05HxIkELk8Hxl-43" value="" style="rounded=1;whiteSpace=wrap;html=1;fontSize=20;" vertex="1" parent="1">
          <mxGeometry x="684.5" y="1220" width="140" height="90" as="geometry" />
        </mxCell>
        <mxCell id="oiwFF2_05HxIkELk8Hxl-44" value="Cálculo&lt;br&gt;tiempo de giro" style="text;html=1;align=center;verticalAlign=middle;whiteSpace=wrap;rounded=0;fontSize=20;" vertex="1" parent="1">
          <mxGeometry x="674.5" y="1250" width="155" height="30" as="geometry" />
        </mxCell>
        <mxCell id="oiwFF2_05HxIkELk8Hxl-47" value="" style="rounded=1;whiteSpace=wrap;html=1;fontSize=20;" vertex="1" parent="1">
          <mxGeometry x="582" y="1390" width="140" height="90" as="geometry" />
        </mxCell>
        <mxCell id="oiwFF2_05HxIkELk8Hxl-48" value="Girar &lt;br&gt;izquierda" style="text;html=1;align=center;verticalAlign=middle;whiteSpace=wrap;rounded=0;fontSize=20;" vertex="1" parent="1">
          <mxGeometry x="572" y="1420" width="155" height="30" as="geometry" />
        </mxCell>
        <mxCell id="oiwFF2_05HxIkELk8Hxl-49" value="" style="rounded=1;whiteSpace=wrap;html=1;fontSize=20;" vertex="1" parent="1">
          <mxGeometry x="792" y="1390" width="140" height="90" as="geometry" />
        </mxCell>
        <mxCell id="oiwFF2_05HxIkELk8Hxl-50" value="Girar&lt;br&gt;derecha" style="text;html=1;align=center;verticalAlign=middle;whiteSpace=wrap;rounded=0;fontSize=20;" vertex="1" parent="1">
          <mxGeometry x="782" y="1420" width="155" height="30" as="geometry" />
        </mxCell>
        <mxCell id="oiwFF2_05HxIkELk8Hxl-53" value="&lt;span style=&quot;font-size: 20px;&quot;&gt;error &amp;lt; 0&lt;/span&gt;" style="text;html=1;align=center;verticalAlign=middle;whiteSpace=wrap;rounded=0;" vertex="1" parent="1">
          <mxGeometry x="560" y="1320" width="190" height="30" as="geometry" />
        </mxCell>
        <mxCell id="oiwFF2_05HxIkELk8Hxl-54" value="&lt;span style=&quot;font-size: 20px;&quot;&gt;error &amp;gt;= 0&lt;/span&gt;" style="text;html=1;align=center;verticalAlign=middle;whiteSpace=wrap;rounded=0;" vertex="1" parent="1">
          <mxGeometry x="767" y="1310" width="190" height="30" as="geometry" />
        </mxCell>
        <mxCell id="oiwFF2_05HxIkELk8Hxl-57" value="" style="endArrow=none;html=1;rounded=0;entryX=0.5;entryY=1;entryDx=0;entryDy=0;" edge="1" parent="1" target="oiwFF2_05HxIkELk8Hxl-22">
          <mxGeometry width="50" height="50" relative="1" as="geometry">
            <mxPoint x="280" y="1000" as="sourcePoint" />
            <mxPoint x="330" y="950" as="targetPoint" />
            <Array as="points">
              <mxPoint x="550" y="1000" />
            </Array>
          </mxGeometry>
        </mxCell>
        <mxCell id="oiwFF2_05HxIkELk8Hxl-58" value="" style="endArrow=none;html=1;rounded=0;" edge="1" parent="1">
          <mxGeometry width="50" height="50" relative="1" as="geometry">
            <mxPoint x="80" y="1000" as="sourcePoint" />
            <mxPoint x="650" y="1480" as="targetPoint" />
            <Array as="points">
              <mxPoint x="80" y="1520" />
              <mxPoint x="650" y="1520" />
            </Array>
          </mxGeometry>
        </mxCell>
        <mxCell id="oiwFF2_05HxIkELk8Hxl-59" value="" style="endArrow=none;html=1;rounded=0;entryX=0.5;entryY=1;entryDx=0;entryDy=0;" edge="1" parent="1" target="oiwFF2_05HxIkELk8Hxl-49">
          <mxGeometry width="50" height="50" relative="1" as="geometry">
            <mxPoint x="650" y="1520" as="sourcePoint" />
            <mxPoint x="440" y="1410" as="targetPoint" />
            <Array as="points">
              <mxPoint x="862" y="1520" />
            </Array>
          </mxGeometry>
        </mxCell>
      </root>
    </mxGraphModel>
  </diagram>
</mxfile>
